<svg width="1437" height="224" viewBox="0 0 1437 224" fill="none" xmlns="http://www.w3.org/2000/svg">
<g clip-path="url(#clip0_983_13178)">
<path d="M965.564 70.394L979.668 67.0993L973.397 51.1179L955.64 55.5298L965.564 70.394Z" fill="#39C2FF"/>
<path d="M215.032 39.6794L227.37 36.7932L221.884 22.8274L206.375 26.6913L215.032 39.6794Z" fill="#F73737"/>
<path d="M215.032 39.6794L227.37 36.7932L221.884 22.8274L206.375 26.6913L215.032 39.6794Z" fill="#F73737"/>
<path d="M58.9004 64.9695L71.2382 62.0832L65.7522 48.1174L50.2432 51.9813L58.9004 64.9695Z" fill="#F73737"/>
<path d="M418.186 53.9856C421.659 52.9137 425.145 51.8418 428.618 50.7699C429.181 50.6013 429.253 49.421 429.301 49.2042C429.504 47.9757 429.504 46.675 429.445 45.4465C429.421 45.0732 428.81 39.9665 428.151 40.1713C424.678 41.2432 421.192 42.3151 417.719 43.387C417.156 43.5556 417.084 44.7359 417.036 44.9527C416.832 46.1812 416.832 47.4819 416.892 48.7104C416.916 49.0838 417.527 54.1904 418.186 53.9856Z" fill="#FFC82C"/>
<path d="M697.527 67.8293C696.641 60.4824 695.745 53.1133 694.859 45.7664C694.706 44.5799 696.817 43.4753 697.176 43.2078C699.267 41.8184 701.659 40.7485 703.967 39.8495C704.673 39.5869 714.565 36.5235 714.73 37.9181C715.616 45.265 716.512 52.6341 717.398 59.9809C717.551 61.1674 715.44 62.2721 715.081 62.5395C712.99 63.929 710.598 64.9989 708.29 65.8979C707.584 66.1604 697.693 69.2238 697.527 67.8293Z" fill="#FFC82C"/>
<path d="M772.167 71.2722C775.641 70.2003 779.126 69.1284 782.6 68.0565C783.163 67.8879 783.234 66.7076 783.282 66.4908C783.486 65.2623 783.486 63.9616 783.426 62.7331C783.402 62.3598 782.791 57.2532 782.132 57.4579C778.659 58.5298 775.174 59.6017 771.7 60.6736C771.137 60.8422 771.065 62.0225 771.017 62.2393C770.814 63.4678 770.814 64.7685 770.874 65.997C770.898 66.3704 771.509 71.477 772.167 71.2722Z" fill="#FFC82C"/>
<path d="M97.1827 22.1734C100.656 21.1015 104.142 20.0296 107.615 18.9576C108.178 18.789 108.25 17.6087 108.298 17.3919C108.501 16.1635 108.501 14.8627 108.441 13.6342C108.418 13.2609 107.807 8.15427 107.148 8.35902C103.674 9.43093 100.189 10.5028 96.7156 11.5747C96.1527 11.7434 96.0808 12.9237 96.0329 13.1404C95.8293 14.3689 95.8293 15.6697 95.8891 16.8981C95.9131 17.2715 96.524 22.3781 97.1827 22.1734Z" fill="#FFC82C"/>
<path d="M534.26 54.0126C539.77 53.302 545.291 52.5914 550.801 51.8808C552.55 51.6519 551.831 45.5818 551.759 44.7026C551.711 44.1004 551.244 37.4401 549.879 37.6208L533.338 39.7526C531.589 39.9814 532.308 46.0515 532.38 46.9307C532.428 47.5329 532.895 54.1932 534.26 54.0126Z" fill="#39C2FF"/>
<path d="M1414.11 54.1065C1418.46 51.0868 1422.8 48.0819 1427.14 45.0622C1428.52 44.1001 1425.27 39.3041 1424.84 38.5936C1424.55 38.1051 1421.27 32.6875 1420.19 33.4424C1415.85 36.4621 1411.51 39.4669 1407.17 42.4866C1405.78 43.4488 1409.03 48.2447 1409.46 48.9553C1409.76 49.4437 1413.04 54.8614 1414.11 54.1065Z" fill="#F73737"/>
<path d="M312.409 22.761C314.936 22.472 317.463 22.195 319.979 21.9059C320.781 21.8216 320.494 19.0395 320.47 18.642C320.458 18.365 320.29 15.3179 319.667 15.3902C317.14 15.6792 314.613 15.9562 312.097 16.2453C311.295 16.3296 311.582 19.1117 311.606 19.5092C311.618 19.7862 311.786 22.8333 312.409 22.761Z" fill="#FFC82C"/>
<path d="M862.843 63.7998C866.558 59.9636 870.273 56.1274 873.988 52.308C875.171 51.0851 871.023 46.9642 870.473 46.3444C870.09 45.9256 865.792 41.2016 864.876 42.1564C861.161 45.9926 857.446 49.8288 853.731 53.6482C852.548 54.8711 856.696 58.992 857.246 59.6118C857.629 60.0306 861.927 64.7546 862.843 63.7998Z" fill="#39C2FF"/>
<path d="M1104.04 40.7251C1101.43 38.8222 1098.81 36.9192 1096.2 35.0163C1095.54 34.5345 1094.12 35.751 1093.68 36.0641C1091.9 37.3287 1090.15 38.9426 1088.54 40.5806C1086.9 42.2426 1085.27 43.9529 1083.81 45.9281C1083.62 46.193 1081.83 48.662 1082.24 48.9631C1084.85 50.8661 1087.46 52.769 1090.07 54.6719C1090.73 55.1537 1092.16 53.9372 1092.6 53.6241C1094.37 52.3595 1096.12 50.7456 1097.74 49.1076C1099.38 47.4456 1101.01 45.7354 1102.47 43.7602C1102.66 43.4952 1104.44 41.0262 1104.04 40.7251Z" fill="#39C2FF"/>
<path d="M1184.2 71.9129C1185.02 68.5663 1185.84 65.2059 1186.66 61.8593C1186.81 61.2094 1185.12 60.6977 1184.91 60.6147C1183.36 60.0063 1181.6 59.5914 1179.88 59.2872C1179.33 59.1904 1172.18 58.0979 1171.95 59.0659C1171.12 62.4125 1170.31 65.7729 1169.48 69.1195C1169.33 69.7695 1171.02 70.2811 1171.23 70.3641C1172.78 70.9726 1174.54 71.3875 1176.26 71.6917C1176.81 71.7885 1183.97 72.881 1184.2 71.9129Z" fill="#F73737"/>
<path d="M815.32 25.3492C817.296 23.7715 819.703 22.6032 822.494 21.8565C823.069 21.6999 822.602 19.9897 822.59 19.9415C822.291 18.5083 821.752 17.051 821.141 15.6659C820.913 15.136 818.637 9.65601 817.428 9.98119C814.637 10.7279 812.23 11.9082 810.253 13.4739C809.726 13.8955 810.074 14.9794 810.157 15.3889C810.457 16.8221 810.996 18.2794 811.607 19.6645C812.218 21.0616 812.84 22.4707 813.739 23.7955C813.847 23.9642 815.008 25.6021 815.32 25.3613V25.3492Z" fill="#F73737"/>
<path d="M1371.91 32.1976C1373.83 30.6801 1376.15 29.548 1378.85 28.8133C1379.41 28.6688 1378.96 27.0067 1378.94 26.9585C1378.66 25.5735 1378.13 24.1643 1377.54 22.8275C1377.31 22.3096 1375.12 17.0103 1373.95 17.3234C1371.25 18.046 1368.93 19.1902 1367.01 20.7077C1366.5 21.1172 1366.85 22.165 1366.92 22.5625C1367.21 23.9475 1367.73 25.3567 1368.32 26.6936C1368.91 28.0425 1369.52 29.4155 1370.38 30.6801C1370.49 30.8367 1371.6 32.4264 1371.9 32.1856L1371.91 32.1976Z" fill="#39C2FF"/>
<path d="M1309.26 39.7926L1319.24 23.949L1307.78 15.7395L1297.8 31.5831L1309.26 39.7926Z" fill="#F73737"/>
<path d="M1033.91 63.5717C1033.91 61.452 1032.19 59.7297 1030.09 59.7297C1027.98 59.7297 1026.27 61.452 1026.27 63.5717C1026.27 65.6915 1027.98 67.4137 1030.09 67.4137C1032.19 67.4137 1033.91 65.6915 1033.91 63.5717Z" fill="#FFC82C"/>
<path d="M941.299 33.6519C943.502 33.6519 945.287 31.8563 945.287 29.6413C945.287 27.4263 943.502 25.6306 941.299 25.6306C939.096 25.6306 937.311 27.4263 937.311 29.6413C937.311 31.8563 939.096 33.6519 941.299 33.6519Z" fill="#F73737"/>
<path d="M1069.38 17.6227C1072.36 17.6227 1074.77 15.1962 1074.77 12.203C1074.77 9.20971 1072.36 6.7832 1069.38 6.7832C1066.4 6.7832 1063.99 9.20971 1063.99 12.203C1063.99 15.1962 1066.4 17.6227 1069.38 17.6227Z" fill="#F73737"/>
<path d="M13.5299 44.2144C16.5926 44.2144 19.0754 41.7178 19.0754 38.6381C19.0754 35.5584 16.5926 33.0618 13.5299 33.0618C10.4672 33.0618 7.98438 35.5584 7.98438 38.6381C7.98438 41.7178 10.4672 44.2144 13.5299 44.2144Z" fill="#39C2FF"/>
<path d="M615.648 34.7388L633.942 30.4712L625.822 9.75684L602.78 15.4664L615.648 34.7388Z" fill="#39C2FF"/>
<path d="M1230.76 47.706C1231.55 40.965 1232.35 34.2035 1233.15 27.4625C1233.29 26.3738 1231.35 25.3659 1231.02 25.1215C1229.09 23.8522 1226.9 22.8769 1224.78 22.0581C1224.13 21.8191 1215.05 19.0341 1214.9 20.3137C1214.11 27.0547 1213.3 33.8162 1212.51 40.5573C1212.37 41.646 1214.31 42.6538 1214.64 42.8983C1216.56 44.1675 1218.76 45.1428 1220.88 45.9616C1221.53 46.2006 1230.61 48.9856 1230.76 47.706Z" fill="#FFC82C"/>
<path d="M378.593 53.9579C371.685 49.1544 364.777 44.3744 357.87 39.5709C355.668 38.0403 360.843 30.4112 361.523 29.281C361.991 28.5039 367.213 19.8859 368.922 21.0867C375.83 25.8903 382.738 30.6702 389.646 35.4737C391.847 37.0043 386.672 44.6334 385.993 45.7636C385.525 46.5407 380.303 55.1587 378.593 53.9579Z" fill="#F73737"/>
<path d="M279.507 57.3412C277.59 55.8236 275.267 54.6915 272.572 53.9568C272.009 53.8123 272.464 52.1502 272.476 52.1021C272.764 50.717 273.291 49.3079 273.877 47.971C274.105 47.4531 276.297 42.1538 277.471 42.467C280.166 43.1896 282.489 44.3338 284.406 45.8513C284.921 46.2608 284.573 47.3086 284.501 47.7061C284.214 49.0911 283.687 50.5002 283.1 51.8371C282.513 53.186 281.902 54.559 281.04 55.8236C280.932 55.9802 279.818 57.57 279.519 57.3291L279.507 57.3412Z" fill="#39C2FF"/>
<path d="M472.315 20.2511C472.315 17.7899 474.295 15.7986 476.743 15.7986C479.191 15.7986 481.171 17.7899 481.171 20.2511C481.171 22.7123 479.191 24.7035 476.743 24.7035C474.295 24.7035 472.315 22.7123 472.315 20.2511Z" fill="#39C2FF"/>
<path d="M1345.88 75.8245C1349.77 75.8245 1352.93 72.6539 1352.93 68.7427C1352.93 64.8315 1349.77 61.6609 1345.88 61.6609C1342 61.6609 1338.84 64.8315 1338.84 68.7427C1338.84 72.6539 1342 75.8245 1345.88 75.8245Z" fill="#39C2FF"/>
<path d="M1256.76 68.0266C1260.3 67.5689 1263.82 67.1233 1267.35 66.6656C1268.47 66.5211 1268.01 62.6309 1267.96 62.0769C1267.94 61.6915 1267.64 57.428 1266.76 57.5484L1256.18 58.9094C1255.06 59.0539 1255.52 62.9441 1255.57 63.4981C1255.59 63.8835 1255.89 68.147 1256.76 68.0266Z" fill="#39C2FF"/>
<path d="M142.288 63.5097C147.063 59.8869 151.837 56.2641 156.611 52.6413C158.114 51.4855 154.224 46.218 153.694 45.4179C153.34 44.8845 149.361 38.9057 148.168 39.817C143.394 43.4398 138.619 47.0626 133.845 50.6854C132.342 51.8411 136.232 57.1086 136.763 57.9088C137.116 58.4422 141.095 64.4209 142.288 63.5097Z" fill="#FFC82C"/>
<path d="M1147.98 35.7583C1150.69 35.7583 1152.89 33.5475 1152.89 30.8203C1152.89 28.0931 1150.69 25.8823 1147.98 25.8823C1145.27 25.8823 1143.07 28.0931 1143.07 30.8203C1143.07 33.5475 1145.27 35.7583 1147.98 35.7583Z" fill="#FFC82C"/>
</g>
<defs>
<clipPath id="clip0_983_13178">
<rect width="1452" height="224" fill="white" transform="translate(-15)"/>
</clipPath>
</defs>
</svg>
